<svg xmlns="http://www.w3.org/2000/svg" width="139.999" height="28.05"><path d="M3.034 21.51A9.866 9.866 0 0 1 0 19.958l1.325-2.128a9.012 9.012 0 0 0 5.3 1.814 4.445 4.445 0 0 0 2.406-.541 1.769 1.769 0 0 0 .837-1.587 1.82 1.82 0 0 0-.75-1.448 7.282 7.282 0 0 0-2.633-1.1l-1.081-.279a8.46 8.46 0 0 1-3.574-1.657 3.515 3.515 0 0 1-1.134-2.738 3.745 3.745 0 0 1 .733-2.284 4.807 4.807 0 0 1 2.04-1.552A7.442 7.442 0 0 1 6.415 5.9a12.242 12.242 0 0 1 3.017.367 11.537 11.537 0 0 1 2.947 1.238l-1.221 2.128A12.8 12.8 0 0 0 8.681 8.57a8.148 8.148 0 0 0-2.232-.3 3.365 3.365 0 0 0-1.97.506 1.568 1.568 0 0 0-.715 1.343 1.3 1.3 0 0 0 .576 1.134 6.869 6.869 0 0 0 2 .785l1.081.279a14.3 14.3 0 0 1 3.192 1.186 4.564 4.564 0 0 1 1.762 1.587 4.207 4.207 0 0 1 .558 2.215 4.3 4.3 0 0 1-.716 2.458 4.64 4.64 0 0 1-2.11 1.657 8.628 8.628 0 0 1-3.383.594 12.558 12.558 0 0 1-3.69-.504zM28.251 5.972v15.627h-2.686l-.174-1.15a10.677 10.677 0 0 1-5.441 1.57 5 5 0 0 1-3.47-1.2 4.648 4.648 0 0 1-1.342-3.644V6.321l3-.349v10.327a4.919 4.919 0 0 0 .279 1.831 1.778 1.778 0 0 0 .907.976 4.166 4.166 0 0 0 1.744.3 9.677 9.677 0 0 0 4.186-1.29V6.321zm31.677 8.51H49.291a5.164 5.164 0 0 0 1.273 3.8 4.421 4.421 0 0 0 3.191 1.186 7.574 7.574 0 0 0 2.424-.349 12.736 12.736 0 0 0 2.284-1.081l1.156 2.129a10.888 10.888 0 0 1-6 1.849 7.545 7.545 0 0 1-5.354-1.866q-2.006-1.865-2.005-5.912a10.2 10.2 0 0 1 .836-4.185 6.794 6.794 0 0 1 6.557-4.151 6.84 6.84 0 0 1 3.453.82 5.375 5.375 0 0 1 2.163 2.249 7.1 7.1 0 0 1 .732 3.279zm-9.12-5.162a5.5 5.5 0 0 0-1.343 2.965h7.6v-.14a4.226 4.226 0 0 0-.889-2.93 3.246 3.246 0 0 0-2.529-.976 3.739 3.739 0 0 0-2.839 1.082zm14.523 12.398H62.5V6.904l.3-.145a11.835 11.835 0 0 1 4.565-.846 10.736 10.736 0 0 1 2.987.387l.48.139-.611 2.748-.582-.233a7.254 7.254 0 0 0-2.273-.3 6.126 6.126 0 0 0-2.031.257zM83.734 6.897a5.891 5.891 0 0 1 2.023 2.72 10.788 10.788 0 0 1 .662 3.888 8.533 8.533 0 0 1-1.308 4.936 7.479 7.479 0 0 1-3.3 2.737 10.5 10.5 0 0 1-4.115.838 18.243 18.243 0 0 1-5.475-1.011V.345l3-.348V7.26a10.515 10.515 0 0 1 5.127-1.361 5.586 5.586 0 0 1 3.386.998zm-2.093 11.23q1.57-1.413 1.57-4.691a6.312 6.312 0 0 0-.908-3.662 3.178 3.178 0 0 0-2.79-1.29 10.384 10.384 0 0 0-4.289 1.011v9.765a11.62 11.62 0 0 0 2.372.28 5.815 5.815 0 0 0 4.045-1.413zm7.164 3.47V.345l3-.348v21.6zm8.549-.645a6.461 6.461 0 0 1-2.442-2.894 10.2 10.2 0 0 1-.8-4.134 9.019 9.019 0 0 1 1.047-4.586 6.256 6.256 0 0 1 2.825-2.616 9.564 9.564 0 0 1 4.046-.82 7.352 7.352 0 0 1 4.081 1.064 6.492 6.492 0 0 1 2.442 2.878 10.091 10.091 0 0 1 .8 4.115 9.1 9.1 0 0 1-1.047 4.622 6.242 6.242 0 0 1-2.825 2.615 9.567 9.567 0 0 1-4.046.82 7.35 7.35 0 0 1-4.081-1.064zm8.859-7.028a6.79 6.79 0 0 0-1.1-4.062 3.8 3.8 0 0 0-3.3-1.518 4.016 4.016 0 0 0-3.5 1.483 8.282 8.282 0 0 0 .052 8.214 3.871 3.871 0 0 0 3.348 1.535q4.5-.001 4.5-5.655zm16.952-7.027a5.877 5.877 0 0 1 2.023 2.72 10.772 10.772 0 0 1 .663 3.888 8.533 8.533 0 0 1-1.308 4.936 7.474 7.474 0 0 1-3.3 2.737 10.5 10.5 0 0 1-4.115.838 18.252 18.252 0 0 1-5.476-1.011V.345l3-.348V7.26a10.514 10.514 0 0 1 5.126-1.361 5.582 5.582 0 0 1 3.387.998zm-2.092 11.23q1.569-1.413 1.569-4.691a6.317 6.317 0 0 0-.907-3.662 3.18 3.18 0 0 0-2.791-1.29 10.387 10.387 0 0 0-4.289 1.011v9.765a11.619 11.619 0 0 0 2.371.28 5.819 5.819 0 0 0 4.048-1.413zm9.02 3.383a9.865 9.865 0 0 1-3.034-1.552l1.325-2.128a9.011 9.011 0 0 0 5.3 1.814 4.441 4.441 0 0 0 2.406-.541 1.769 1.769 0 0 0 .837-1.587 1.818 1.818 0 0 0-.75-1.448 7.274 7.274 0 0 0-2.632-1.1l-1.082-.279a8.469 8.469 0 0 1-3.575-1.657 3.517 3.517 0 0 1-1.133-2.738 3.75 3.75 0 0 1 .732-2.284 4.816 4.816 0 0 1 2.041-1.552 7.444 7.444 0 0 1 2.948-.558 12.234 12.234 0 0 1 3.016.367 11.536 11.536 0 0 1 2.947 1.238l-1.22 2.128a12.839 12.839 0 0 0-2.477-1.063 8.148 8.148 0 0 0-2.232-.3 3.361 3.361 0 0 0-1.97.506 1.569 1.569 0 0 0-.716 1.343 1.3 1.3 0 0 0 .576 1.134 6.887 6.887 0 0 0 2.005.785l1.081.279a14.312 14.312 0 0 1 3.192 1.186 4.561 4.561 0 0 1 1.761 1.587 4.207 4.207 0 0 1 .558 2.215 4.3 4.3 0 0 1-.715 2.458 4.643 4.643 0 0 1-2.11 1.657 8.632 8.632 0 0 1-3.383.594 12.551 12.551 0 0 1-3.696-.504zM34.16 28.05l-2.836-.2V6.893l.345-.129a15.618 15.618 0 0 1 5.192-.888c4.979 0 7.4 2.61 7.4 7.979 0 5.224-2.6 8.1-7.308 8.1a10.1 10.1 0 0 1-2.794-.348zm-.065-9.292a7.036 7.036 0 0 0 2.7.485c3.285 0 4.564-1.494 4.564-5.328 0-3.911-1.186-5.3-4.534-5.3a10.24 10.24 0 0 0-2.732.339z" fill="#040405"/></svg>